<svg width="17" height="17" viewBox="0 0 17 17" fill="none" xmlns="http://www.w3.org/2000/svg">
<g clip-path="url(#clip0_0_4119)">
<path d="M1.93329 1.39832H2.80406C2.96808 1.39832 3.05008 1.39832 3.11608 1.42848C3.17423 1.45505 3.22352 1.4978 3.25806 1.55161C3.29725 1.61268 3.30884 1.69386 3.33204 1.85622L3.64757 4.06498M3.64757 4.06498L4.34884 9.21925C4.43783 9.87333 4.48232 10.2004 4.63869 10.4465C4.77647 10.6635 4.97401 10.8359 5.20753 10.9432C5.47253 11.065 5.80258 11.065 6.46269 11.065H12.1679C12.7963 11.065 13.1105 11.065 13.3673 10.9519C13.5937 10.8522 13.7879 10.6915 13.9281 10.4878C14.0872 10.2567 14.146 9.94809 14.2636 9.33082L15.146 4.69811C15.1874 4.48085 15.2081 4.37223 15.1781 4.28732C15.1518 4.21283 15.0999 4.15011 15.0317 4.11033C14.9539 4.06498 14.8433 4.06498 14.6221 4.06498H3.64757ZM7.26662 14.065C7.26662 14.4332 6.96815 14.7316 6.59996 14.7316C6.23177 14.7316 5.93329 14.4332 5.93329 14.065C5.93329 13.6968 6.23177 13.3983 6.59996 13.3983C6.96815 13.3983 7.26662 13.6968 7.26662 14.065ZM12.6 14.065C12.6 14.4332 12.3015 14.7316 11.9333 14.7316C11.5651 14.7316 11.2666 14.4332 11.2666 14.065C11.2666 13.6968 11.5651 13.3983 11.9333 13.3983C12.3015 13.3983 12.6 13.6968 12.6 14.065Z" stroke="black" stroke-width="1.5" stroke-linecap="round" stroke-linejoin="round"/>
</g>
<defs>
<clipPath id="clip0_0_4119">
<rect width="16" height="16" fill="white" transform="translate(0.599976 0.0650024)"/>
</clipPath>
</defs>
</svg>
