<svg width="17" height="17" viewBox="0 0 17 17" fill="none" xmlns="http://www.w3.org/2000/svg">
<path d="M12.37 10.6997L14.9 13.229L14.064 14.065L11.5347 11.535C10.5935 12.2895 9.42294 12.6999 8.21669 12.6983C6.80689 12.6975 5.45509 12.137 4.45822 11.1401C3.46134 10.1433 2.90091 8.79147 2.90002 7.38167C2.90091 5.97187 3.46134 4.62007 4.45822 3.62319C5.45509 2.62632 6.80689 2.06589 8.21669 2.065C9.62649 2.06589 10.9783 2.62632 11.9752 3.62319C12.972 4.62007 13.5325 5.97187 13.5334 7.38167C13.535 8.58791 13.1245 9.75853 12.37 10.6997ZM11.1847 10.261C11.9346 9.49007 12.3533 8.45648 12.3514 7.381C12.3515 6.83798 12.2447 6.30025 12.037 5.79853C11.8293 5.29681 11.5247 4.84094 11.1407 4.45696C10.7568 4.07299 10.3009 3.76844 9.79917 3.56071C9.29745 3.35299 8.75971 3.24616 8.21669 3.24634C7.67356 3.24607 7.1357 3.35286 6.63386 3.56058C6.13202 3.76831 5.67604 4.07291 5.29198 4.45696C4.90793 4.84101 4.60333 5.29699 4.39561 5.79883C4.18788 6.30067 4.08109 6.83854 4.08136 7.38167C4.08118 7.92475 4.18803 8.46254 4.3958 8.9643C4.60356 9.46606 4.90817 9.92196 5.29222 10.3059C5.67626 10.6899 6.13221 10.9945 6.63401 11.2022C7.13581 11.4098 7.67361 11.5166 8.21669 11.5163C9.29217 11.5182 10.3258 11.0995 11.0967 10.3497L11.1847 10.261Z" fill="white"/>
</svg>
